<svg width="2000" height="2000" viewBox="0 0 2000 2000" fill="none" xmlns="http://www.w3.org/2000/svg">
<rect width="2000" height="2000" fill="white"/>
<path d="M596.348 895H523.105L376.621 748.516V528.789H523.105V602.031H596.348V528.789H742.832V748.516L596.348 895ZM962.559 895H816.074V602.031L889.316 528.789H1109.04L1182.29 602.031V895H1035.8V821.758H962.559V895ZM1402.01 895H1255.53V528.789H1402.01L1475.25 602.031V528.789H1621.74V895H1475.25L1402.01 821.758V895ZM596.348 1470H449.863V1323.52H376.621V1103.79H669.59V1323.52H596.348V1470ZM889.316 1470H742.832V1177.03L816.074 1103.79H1035.8L1109.04 1177.03V1470H962.559V1396.76H889.316V1470Z" fill="#1E1E1E"/>
</svg>
